<?xml version="1.0" encoding="utf-8"?>
<!-- Generator: Adobe Illustrator 20.1.0, SVG Export Plug-In . SVG Version: 6.00 Build 0)  -->
<svg version="1.1" id="Layer_1" xmlns="http://www.w3.org/2000/svg" xmlns:xlink="http://www.w3.org/1999/xlink" x="0px" y="0px"
	 viewBox="0 0 156.3 156.3" style="enable-background:new 0 0 156.3 156.3;" xml:space="preserve">
<style type="text/css">
	.st0{fill:#010101;}
</style>
<g>
	<g>
		<path class="st0" d="M95.3,108.1c-24.7,0-46.2-4.2-59.6-11.8c-4.6,2.2-19.2,9.5-23,14.1c-0.8,0.9-1.7,3.4-1.8,4.6c0,1,1,3.7,1,3.7
			c32.7,13.8,51,8.6,69.3,5c19.5-3.8,37.1-16.3,37.1-16.3c0.1-0.2,0.3-0.3,0.5-0.5C110.8,107.7,102.9,108.1,95.3,108.1z"/>
		<path class="st0" d="M95.9,34.1l-0.3,0c-0.2-3.1-4-5.5-8.5-5.5c-4.7,0-8.6,2.6-8.6,5.8c0,0.1,0,0.1,0,0.2
			C35,39.1,36.8,69.5,37.7,85.9c0.2,2.9,0,5.7-0.2,7.6c17.7,10.1,50.5,13.8,86.2,9.5c6.6-4.6,15.6-8.9,15.6-8.9s0.6-16.9,0-22.5
			C136.3,42.3,111.2,35.5,95.9,34.1z"/>
	</g>
</g>
</svg>
