<?xml version="1.0" encoding="utf-8"?>
<!-- Generator: Adobe Illustrator 20.1.0, SVG Export Plug-In . SVG Version: 6.00 Build 0)  -->
<svg version="1.1" id="Layer_1" xmlns="http://www.w3.org/2000/svg" xmlns:xlink="http://www.w3.org/1999/xlink" x="0px" y="0px"
	 viewBox="0 0 100 100" style="enable-background:new 0 0 100 100;" xml:space="preserve">
<path d="M48.4,84.7c-4.6,0.1-9.3-0.2-13.9-1.1c-1-0.2-1.6-0.6-1.7-1.7c-0.1-1.2-0.2-2.5-0.2-3.7c0-0.5-0.1-0.8-0.6-1
	c-0.8-0.3-1.1-1-1-1.7c0.1-1.7,0.1-3.5,0.3-5.2c0.1-0.6-0.1-1.3-0.1-1.9c0-1.6,0.1-3.2,0.1-4.7c0-0.1-0.1-0.2-0.1-0.4
	c-0.1,0.1-0.1,0.2-0.2,0.3c-1,1.9-1.7,4-2.1,6.1c-0.6,2.8-1.8,5.4-2.3,8.2c-0.3,1.6-1,3.1-1.3,4.7c-0.3,1.7-0.9,3.3-1.3,5
	c-0.4,2.3-1,2.7-3.4,2.6c-1.9,0-3.8-0.4-5.5-1.2c-1.3-0.6-1.7-1.4-1.5-2.8c0.4-2.9,1.4-5.7,1.7-8.6c0.4-4.1,0.8-8.2,1.4-12.2
	c0.6-4.7,1.4-9.3,2.2-14c1.1-6.4,2.1-12.8,3.8-19.1c0.8-3.1,1.8-6.2,2.9-9.2c1.3-3.4,4.1-4.9,7.2-6c2-0.7,4.2-1.2,6.1-2.3
	c0.6-0.4,1.1-1,1.5-1.5c1.3-1.6,3.2-2,5.1-2.4c3.3-0.6,6.7-0.9,10.1-0.4c0.8,0.1,1.3,0.7,2,1.1c1.8,1.2,3.6,2.1,5.8,2.2
	c1.2,0.1,2.4,0.2,3.4,1c0.4,0.3,1.1,0.1,1.7,0.2c2.5,0.4,4.4,1.6,5.7,3.8c2,3.4,3.4,7.1,4.7,10.8c2.3,7.1,4.2,14.4,5.5,21.8
	c1.2,6.6,1.6,13.3,1,20c-0.3,3.5-0.6,7-1.4,10.4c-0.6,2.6-0.8,5.2-1.1,7.8c-0.1,0.5-0.3,0.8-0.8,0.9c-3.1,0.4-6,0.1-8.9-0.9
	c-0.3-0.1-0.7-0.3-0.7-0.7c0-2-0.2-4.1,0.5-6c0.6-1.7,0.6-3.3,0.4-4.8c-0.2-1.6-0.8-3.2,0-4.8c0.1-0.3,0-0.7-0.1-1
	c-1.1-2.7-1.4-5.5-1.6-8.4c-0.1-1.8-0.6-3.5-1.1-5.2c-0.1-0.2-0.1-0.5-0.4-0.7c-0.1,0.3-0.1,0.5-0.1,0.8c-0.3,3.4-0.4,6.8-0.3,10.2
	c0,2.3,0.1,4.7-0.4,7c-0.1,0.7-0.4,1.2-1.2,1.2c-0.4,0-0.6,0.2-0.5,0.7c0.2,1.5-0.2,3-0.3,4.4c0,0.5-0.4,0.6-0.8,0.7
	c-2.4,0.9-4.9,1.2-7.4,1.5C55.6,84.7,52.1,84.8,48.4,84.7z"/>
</svg>
